<svg xmlns="http://www.w3.org/2000/svg" width="489" height="489" viewBox="0 0 489 489" fill="none"><circle cx="244.016" cy="244.016" r="243.42" fill="white" fill-opacity="0.2" stroke="url(#paint0_linear_1109_552)" stroke-width="1.19032"></circle><circle cx="244.014" cy="244.015" r="155.337" fill="white" fill-opacity="0.2" stroke="url(#paint1_linear_1109_552)" stroke-width="1.19032"></circle><path d="M207.111 337.845L264.643 207.276L262.171 203.905H182.391V173.791H306.668V197.163L246.215 337.845H207.111ZM182.391 230.423V173.791H212.28V230.423H182.391Z" fill="#FFF683"></path><path d="M46.5512 270.415L41.7873 270.997L41.2324 266.46L45.9963 265.878L46.5512 270.415Z" fill="white"></path><path d="M59.0983 308.06C59.4915 309.24 59.6196 310.329 59.4829 311.324C59.3461 312.32 59.0266 313.209 58.5245 313.992C58.0224 314.775 57.426 315.435 56.7352 315.973C56.0405 316.499 55.3317 316.882 54.609 317.123L54.2114 317.255C53.4284 317.516 52.5932 317.64 51.7059 317.628C50.8186 317.616 49.9554 317.435 49.1164 317.085C48.2653 316.74 47.5005 316.211 46.8222 315.5C46.1398 314.778 45.6061 313.838 45.221 312.681C44.8358 311.525 44.7016 310.459 44.8183 309.483C44.931 308.496 45.2244 307.608 45.6984 306.822C46.1603 306.039 46.7427 305.376 47.4455 304.835C48.1483 304.293 48.8912 303.891 49.6742 303.631L50.0717 303.498C50.7945 303.258 51.5935 303.145 52.4688 303.162C53.3401 303.166 54.2113 303.331 55.0825 303.656C55.9536 303.982 56.7425 304.502 57.4489 305.217C58.1554 305.932 58.7052 306.879 59.0983 308.06ZM57.4721 308.602C57.2153 307.831 56.8401 307.186 56.3464 306.668C55.8487 306.138 55.2806 305.738 54.6423 305.469C53.9919 305.204 53.3154 305.061 52.6128 305.041C51.8981 305.025 51.1915 305.133 50.4928 305.365C49.7579 305.61 49.1094 305.953 48.5472 306.395C47.985 306.836 47.5351 307.354 47.1977 307.948C46.8482 308.546 46.6392 309.205 46.5708 309.923C46.4983 310.63 46.5905 311.369 46.8472 312.14C47.104 312.911 47.4752 313.563 47.9608 314.098C48.4425 314.62 49.0025 315.015 49.6408 315.284C50.2671 315.558 50.9376 315.702 51.6522 315.719C52.3669 315.735 53.0917 315.621 53.8265 315.376C54.5252 315.143 55.1556 314.806 55.7179 314.365C56.2681 313.927 56.7239 313.407 57.0854 312.805C57.4349 312.207 57.6519 311.553 57.7364 310.842C57.8169 310.119 57.7288 309.372 57.4721 308.602Z" fill="white"></path><path d="M69.297 332.718L56.9548 339.118L56.0956 337.461L68.4378 331.061L69.297 332.718ZM73.6281 341.07L61.2859 347.47L60.4267 345.813L72.7689 339.413L73.6281 341.07ZM67.5508 342.548L66.063 343.32L62.2404 335.948L63.7283 335.177L67.5508 342.548Z" fill="white"></path><path d="M86.3619 360.3L74.993 368.302L73.9187 366.776L85.2876 358.774L86.3619 360.3ZM85.5069 359.085L84.1364 360.05L80.475 354.848L81.8455 353.884L85.5069 359.085Z" fill="white"></path><path d="M105.886 383.007L92.27 388.751L90.1266 386.427L96.8475 373.207L98.1516 374.621L91.991 386.651L91.7073 385.669L93.2309 387.321L92.2364 386.917L104.62 381.635L105.886 383.007ZM100.807 383.624L99.1486 384.298L95.0813 379.888L95.8873 378.29L100.807 383.624Z" fill="white"></path><path d="M123.003 397.818L117.968 411.644L116.475 410.43L121.126 397.862L121.547 398.794L119.774 397.352L120.816 397.61L109.724 404.937L108.276 403.759L120.521 395.799L123.003 397.818Z" fill="white"></path><path d="M148.204 414.636L140.97 426.598L139.373 425.632L146.607 413.67L148.204 414.636ZM140.854 410.191L141.595 417.872L139.721 416.739L138.915 409.018L140.854 410.191ZM144.608 418.337L143.751 419.755L140.557 417.823C140.057 417.521 139.565 417.365 139.082 417.354C138.598 417.344 138.151 417.459 137.738 417.699C137.319 417.95 136.969 418.309 136.686 418.777C136.404 419.244 136.252 419.716 136.23 420.193C136.203 420.68 136.306 421.136 136.539 421.559C136.766 421.993 137.13 422.361 137.63 422.663L140.824 424.595L139.976 425.997L137.075 424.242C136.206 423.717 135.525 423.126 135.03 422.471C134.536 421.816 134.274 421.109 134.244 420.349C134.214 419.589 134.458 418.78 134.977 417.921L135.135 417.661C135.654 416.802 136.263 416.213 136.961 415.893C137.648 415.567 138.396 415.471 139.206 415.604C140.004 415.731 140.838 416.057 141.707 416.583L144.608 418.337Z" fill="white"></path><path d="M175.451 427.281L165.406 438.12L162.496 436.885L163.18 422.07L164.95 422.822L164.287 436.321L163.625 435.543L165.693 436.421L164.621 436.462L173.733 426.552L175.451 427.281ZM171.076 429.934L169.842 431.231L164.32 428.886L164.397 427.098L171.076 429.934Z" fill="white"></path><path d="M196.716 433.247C197.945 433.564 198.941 434.051 199.702 434.707C200.452 435.359 201.002 436.098 201.353 436.923C201.704 437.748 201.899 438.592 201.938 439.454C201.975 440.329 201.896 441.141 201.702 441.891L201.598 442.297C201.388 443.108 201.056 443.888 200.6 444.636C200.133 445.381 199.549 446.017 198.849 446.544C198.149 447.071 197.322 447.428 196.369 447.615C195.416 447.801 194.349 447.742 193.169 447.438C191.965 447.127 190.986 446.651 190.233 446.011C189.481 445.37 188.949 444.61 188.639 443.73C188.328 442.85 188.25 441.886 188.402 440.837L190.247 441.313C190.148 442.101 190.232 442.791 190.498 443.384C190.762 443.99 191.163 444.493 191.702 444.895C192.228 445.293 192.86 445.588 193.598 445.778C194.397 445.984 195.134 446.024 195.81 445.897C196.482 445.782 197.086 445.525 197.622 445.125C198.142 444.735 198.591 444.241 198.968 443.644C199.333 443.043 199.614 442.362 199.811 441.599C199.998 440.874 200.078 440.16 200.049 439.458C200.008 438.752 199.85 438.095 199.575 437.486C199.287 436.875 198.874 436.342 198.335 435.888C197.794 435.446 197.111 435.119 196.287 434.907C195.132 434.608 194.086 434.646 193.15 435.021C192.214 435.396 191.519 436.108 191.064 437.157L189.22 436.681C189.581 435.791 190.112 435.03 190.813 434.398C191.501 433.762 192.347 433.332 193.349 433.105C194.34 432.876 195.462 432.923 196.716 433.247Z" fill="white"></path><path d="M239.725 439.28L239.107 453.169L237.242 453.086L237.86 439.197L239.725 439.28ZM238.241 439.214L238.166 440.888L231.812 440.606L231.886 438.931L238.241 439.214Z" fill="white"></path><path d="M262.609 438.375L263.619 452.241L261.757 452.377L260.748 438.511L262.609 438.375ZM261.128 438.483L261.249 440.155L254.905 440.616L254.783 438.945L261.128 438.483Z" fill="white"></path><path d="M286.684 434.501L289.359 448.144L287.528 448.504L284.852 434.86L286.684 434.501ZM285.226 434.787L285.549 436.432L278.933 437.729L278.61 436.085L285.226 434.787ZM286.425 440.899L286.747 442.543L280.711 443.727L280.388 442.082L286.425 440.899ZM287.579 446.786L287.902 448.43L281.473 449.691L281.15 448.046L287.579 446.786Z" fill="white"></path><path d="M313.401 426.361L313.958 427.982L310.681 429.11C309.889 429.382 309.23 429.75 308.704 430.213C308.171 430.692 307.767 431.234 307.491 431.839C307.204 432.448 307.052 433.098 307.035 433.789C307.017 434.48 307.131 435.179 307.374 435.888C307.631 436.632 307.976 437.265 308.411 437.787C308.85 438.321 309.368 438.733 309.965 439.024C310.554 439.332 311.202 439.498 311.909 439.523C312.604 439.553 313.348 439.431 314.14 439.158L317.418 438.03L317.975 439.651L314.878 440.717C313.69 441.126 312.593 441.295 311.588 441.225C310.588 441.166 309.692 440.924 308.901 440.498C308.102 440.089 307.426 439.549 306.874 438.88C306.325 438.223 305.915 437.498 305.642 436.706L305.505 436.31C305.241 435.541 305.121 434.723 305.144 433.856C305.168 432.988 305.366 432.141 305.74 431.314C306.101 430.492 306.654 429.737 307.398 429.052C308.146 428.378 309.115 427.836 310.303 427.427L313.401 426.361ZM314.805 425.877L319.38 439.167L317.615 439.775L313.04 426.485L314.805 425.877Z" fill="white"></path><path d="M342.761 412.405L349.261 424.695L346.567 426.12L334.605 418.614L334.066 418.899L334.243 418.418L340.119 429.53L338.537 430.367L332.037 418.077L334.764 416.634L346.727 424.139L347.265 423.855L347.089 424.336L341.212 413.224L342.761 412.405Z" fill="white"></path><path d="M363.033 398.55L371.205 409.798L369.695 410.895L361.523 399.647L363.033 398.55ZM361.831 399.423L362.816 400.779L357.362 404.742L356.377 403.386L361.831 399.423ZM365.492 404.462L366.477 405.818L361.5 409.433L360.515 408.077L365.492 404.462ZM369.018 409.315L370.003 410.671L364.703 414.522L363.717 413.166L369.018 409.315Z" fill="white"></path><path d="M387.937 375.82L400.407 383.022L399.044 384.379L387.785 377.691L388.742 377.383L387.136 378.983L387.515 377.96L394.188 388.41L392.947 389.646L385.684 378.064L387.937 375.82ZM382.014 381.72L393.783 388.813L392.502 390.09L381.835 383.619L382.832 383.27L381.213 384.883L381.578 383.874L388.466 394.917L387.143 396.234L379.747 383.978L382.014 381.72Z" fill="white"></path><path d="M411.605 349.52L415.632 352.131L413.145 355.966L409.118 353.355L411.605 349.52Z" fill="white"></path><path d="M425.732 314.794L438.55 320.177L437.828 321.898L425.009 316.515L425.732 314.794ZM425.156 316.164L426.702 316.813L424.239 322.678L422.694 322.029L425.156 316.164Z" fill="white"></path><path d="M431.923 294.757C432.213 293.731 432.665 292.922 433.281 292.33C433.908 291.742 434.616 291.361 435.404 291.188C436.192 291.014 436.97 291.036 437.74 291.254L437.254 292.976C436.692 292.818 436.156 292.799 435.648 292.919C435.135 293.051 434.687 293.308 434.303 293.687C433.919 294.067 433.639 294.568 433.463 295.192C433.29 295.803 433.263 296.369 433.379 296.89C433.505 297.427 433.752 297.885 434.119 298.266C434.499 298.65 434.97 298.922 435.532 299.08C436.094 299.239 436.637 299.254 437.162 299.125C437.683 299.008 438.143 298.755 438.543 298.367C438.94 297.99 439.226 297.491 439.402 296.867C439.529 296.415 439.579 295.935 439.551 295.425C439.536 294.92 439.427 294.487 439.225 294.126L439.68 292.513L446.601 295.198L444.62 302.218L443.117 301.794L444.808 295.801L445.289 296.411L440.246 294.434L440.546 294.004C440.8 294.459 440.961 294.966 441.027 295.525C441.09 296.097 441.03 296.707 440.847 297.354C440.558 298.381 440.101 299.182 439.476 299.758C438.864 300.337 438.172 300.709 437.4 300.874C436.637 301.054 435.895 301.043 435.174 300.839L434.917 300.767C434.196 300.564 433.552 300.184 432.983 299.627C432.426 299.075 432.036 298.377 431.812 297.536C431.596 296.71 431.633 295.784 431.923 294.757Z" fill="white"></path><path d="M437.227 267.839C437.398 266.581 437.764 265.535 438.326 264.702C438.886 263.881 439.556 263.249 440.334 262.803C441.112 262.358 441.927 262.066 442.779 261.925C443.644 261.787 444.46 261.77 445.227 261.874L445.642 261.931C446.473 262.044 447.286 262.282 448.082 262.647C448.876 263.024 449.576 263.53 450.182 264.163C450.788 264.797 451.239 265.576 451.536 266.5C451.833 267.425 451.899 268.491 451.735 269.699C451.567 270.932 451.209 271.959 450.662 272.782C450.114 273.604 449.422 274.221 448.584 274.632C447.746 275.044 446.798 275.235 445.738 275.206L445.995 273.319C446.789 273.324 447.465 273.16 448.023 272.826C448.593 272.494 449.046 272.036 449.382 271.454C449.716 270.885 449.934 270.222 450.037 269.467C450.148 268.65 450.101 267.913 449.895 267.257C449.702 266.603 449.376 266.033 448.917 265.548C448.469 265.077 447.926 264.689 447.288 264.384C446.649 264.092 445.939 263.893 445.159 263.787C444.417 263.686 443.698 263.691 443.004 263.801C442.308 263.924 441.674 264.158 441.102 264.503C440.528 264.861 440.047 265.334 439.66 265.922C439.285 266.511 439.04 267.227 438.925 268.07C438.764 269.253 438.924 270.287 439.406 271.173C439.888 272.058 440.676 272.665 441.772 272.994L441.515 274.881C440.589 274.627 439.771 274.189 439.061 273.567C438.349 272.957 437.823 272.168 437.48 271.199C437.137 270.242 437.052 269.122 437.227 267.839Z" fill="white"></path><path d="M441.639 229.124L446.43 228.837L446.702 233.4L441.912 233.686L441.639 229.124Z" fill="white"></path><path d="M432.402 192.791L445.915 189.52L446.354 191.334L432.841 194.605L432.402 192.791ZM432.752 194.234L434.38 193.84L435.877 200.023L434.248 200.417L432.752 194.234Z" fill="white"></path><path d="M422.565 164.5L437.339 164.155L438.48 167.104L427.375 176.934L426.681 175.14L436.827 166.212L436.731 167.229L435.92 165.133L436.697 165.874L423.239 166.241L422.565 164.5ZM427.516 165.791L429.306 165.772L431.471 171.368L430.134 172.558L427.516 165.791Z" fill="white"></path><path d="M408.615 138.455L420.669 131.527L422.187 134.169L415.108 146.388L415.412 146.916L414.925 146.757L425.822 140.493L426.715 142.045L414.661 148.973L413.123 146.298L420.203 134.079L419.899 133.551L420.386 133.71L409.488 139.974L408.615 138.455Z" fill="white"></path><path d="M393.269 118.377C392.485 117.411 391.982 116.438 391.759 115.458C391.536 114.478 391.521 113.533 391.715 112.624C391.909 111.714 392.235 110.886 392.691 110.139C393.156 109.402 393.684 108.794 394.276 108.314L394.601 108.05C395.242 107.53 395.98 107.119 396.815 106.818C397.649 106.517 398.521 106.382 399.429 106.413C400.348 106.437 401.249 106.661 402.135 107.087C403.028 107.523 403.859 108.215 404.627 109.161C405.395 110.108 405.896 111.058 406.131 112.012C406.374 112.976 406.412 113.91 406.246 114.813C406.089 115.709 405.778 116.534 405.311 117.288C404.844 118.043 404.29 118.681 403.65 119.201L403.324 119.465C402.733 119.945 402.024 120.331 401.2 120.625C400.383 120.928 399.509 121.08 398.579 121.083C397.649 121.085 396.728 120.877 395.815 120.457C394.902 120.037 394.053 119.344 393.269 118.377ZM394.6 117.297C395.112 117.928 395.69 118.399 396.335 118.71C396.988 119.031 397.66 119.205 398.352 119.231C399.054 119.25 399.738 119.145 400.403 118.917C401.077 118.68 401.7 118.33 402.272 117.866C402.873 117.378 403.359 116.828 403.73 116.217C404.101 115.605 404.339 114.962 404.445 114.287C404.562 113.604 404.525 112.915 404.336 112.218C404.155 111.531 403.808 110.872 403.296 110.241C402.784 109.61 402.206 109.13 401.564 108.802C400.929 108.483 400.265 108.31 399.573 108.283C398.891 108.248 398.212 108.349 397.538 108.586C396.863 108.822 396.225 109.185 395.624 109.673C395.052 110.137 394.581 110.674 394.21 111.286C393.85 111.889 393.606 112.536 393.48 113.227C393.364 113.91 393.392 114.599 393.563 115.294C393.742 115.999 394.088 116.666 394.6 117.297Z" fill="white"></path><path d="M377.597 101.26L387.233 91.2379L388.579 92.5315L378.943 102.554L377.597 101.26Z" fill="white"></path><path d="M359.454 86.5542C358.441 85.7887 357.709 84.9569 357.258 84.0589C356.817 83.1685 356.593 82.2751 356.586 81.3787C356.579 80.4823 356.723 79.6283 357.018 78.8168C357.321 77.9951 357.705 77.2753 358.172 76.6574L358.425 76.3231C358.93 75.6546 359.537 75.0626 360.244 74.5471C360.962 74.0393 361.746 73.6765 362.595 73.4587C363.444 73.2408 364.344 73.2289 365.296 73.4228C366.247 73.6167 367.209 74.0811 368.182 74.8159C369.174 75.5661 369.895 76.3813 370.344 77.2616C370.793 78.1418 370.991 79.0479 370.94 79.9796C370.888 80.9114 370.59 81.8321 370.046 82.7417L368.526 81.5935C368.92 80.9042 369.108 80.2345 369.09 79.5844C369.08 78.9241 368.903 78.3051 368.559 77.7274C368.226 77.1574 367.756 76.6427 367.148 76.1834C366.49 75.6859 365.824 75.366 365.152 75.2239C364.487 75.0717 363.831 75.0769 363.183 75.2396C362.552 75.3998 361.948 75.6833 361.37 76.0901C360.802 76.5045 360.281 77.0257 359.807 77.6537C359.355 78.2514 359.007 78.8799 358.764 79.5392C358.53 80.2062 358.424 80.8737 358.444 81.5416C358.475 82.2172 358.651 82.8679 358.974 83.4938C359.304 84.1095 359.809 84.6738 360.488 85.1867C361.44 85.9062 362.42 86.2729 363.428 86.2868C364.436 86.3006 365.352 85.9103 366.175 85.1159L367.694 86.2642C367.019 86.9473 366.236 87.446 365.346 87.7602C364.466 88.0821 363.52 88.1548 362.508 87.9784C361.505 87.8097 360.487 87.335 359.454 86.5542Z" fill="white"></path><path d="M340.379 73.727L347.39 61.7212L349.002 62.6624L341.991 74.6682L340.379 73.727Z" fill="white"></path><path d="M315.329 61.6752L316.012 60.1033L319.191 61.4857C319.959 61.8199 320.694 61.9939 321.394 62.0076C322.111 62.0148 322.775 61.8883 323.386 61.6281C324.01 61.373 324.561 60.9967 325.041 60.4991C325.52 60.0015 325.909 59.4092 326.208 58.7222C326.522 58.0004 326.695 57.3002 326.727 56.6219C326.764 55.9318 326.661 55.2777 326.417 54.6596C326.19 54.0348 325.825 53.4744 325.321 52.9782C324.828 52.4871 324.198 52.0744 323.429 51.7402L320.251 50.3579L320.934 48.786L323.938 50.0924C325.091 50.5937 326.014 51.2097 326.707 51.9403C327.405 52.6592 327.902 53.443 328.197 54.2915C328.509 55.1334 328.643 55.9877 328.599 56.8544C328.559 57.7095 328.372 58.5212 328.038 59.2897L327.871 59.6739C327.547 60.4191 327.083 61.1035 326.479 61.7271C325.876 62.3508 325.157 62.8413 324.323 63.1986C323.501 63.561 322.584 63.7437 321.572 63.7466C320.565 63.7379 319.485 63.4829 318.333 62.9816L315.329 61.6752ZM313.966 61.0827L319.572 48.1936L321.283 48.9379L315.678 61.8271L313.966 61.0827Z" fill="white"></path><path d="M284.244 52.1266L287.755 38.6743L290.703 39.4438L294.452 53.0588L295.042 53.2127L294.587 53.4482L297.761 41.2858L299.493 41.7379L295.982 55.1902L292.997 54.4111L289.248 40.7961L288.658 40.6422L289.113 40.4067L285.939 52.5691L284.244 52.1266Z" fill="white"></path><path d="M259.179 48.9886C257.94 48.8702 256.893 48.5469 256.038 48.0188C255.183 47.4906 254.499 46.8386 253.987 46.0626C253.474 45.2866 253.112 44.4739 252.9 43.6246C252.7 42.7764 252.636 41.9732 252.709 41.2148L252.749 40.7978C252.827 39.9762 253.052 39.1622 253.422 38.3558C253.793 37.5494 254.308 36.8334 254.967 36.2076C255.627 35.5693 256.42 35.0838 257.344 34.7513C258.282 34.42 259.357 34.3123 260.57 34.4283C261.784 34.5443 262.813 34.8531 263.658 35.3548C264.515 35.8576 265.208 36.485 265.735 37.237C266.264 37.9763 266.634 38.7769 266.845 39.6389C267.056 40.5008 267.122 41.3426 267.044 42.1641L267.004 42.5812C266.931 43.3396 266.71 44.1156 266.341 44.9094C265.985 45.7043 265.481 46.4343 264.831 47.0991C264.181 47.764 263.386 48.2747 262.446 48.6313C261.506 48.9879 260.417 49.107 259.179 48.9886ZM259.342 47.2823C260.151 47.3596 260.892 47.2774 261.565 47.0357C262.252 46.7952 262.847 46.4376 263.352 45.9629C263.857 45.4755 264.262 44.9147 264.565 44.2804C264.869 43.6335 265.056 42.9435 265.126 42.2104C265.2 41.4394 265.149 40.7075 264.972 40.0147C264.796 39.3219 264.505 38.7009 264.098 38.1519C263.693 37.5902 263.175 37.1326 262.546 36.779C261.929 36.4267 261.216 36.2119 260.407 36.1346C259.598 36.0573 258.851 36.1325 258.166 36.3604C257.494 36.5895 256.906 36.9414 256.401 37.4161C255.898 37.8782 255.494 38.4327 255.19 39.0796C254.886 39.7265 254.697 40.4355 254.623 41.2065C254.553 41.9395 254.606 42.6525 254.782 43.3453C254.959 44.0255 255.25 44.6528 255.654 45.2271C256.06 45.7888 256.57 46.2521 257.186 46.6171C257.814 46.9832 258.533 47.205 259.342 47.2823Z" fill="white"></path><path d="M229.394 48.8693C228.126 48.9467 227.029 48.7911 226.102 48.4025C225.188 48.0131 224.437 47.4802 223.849 46.8038C223.26 46.1274 222.814 45.3851 222.511 44.5768C222.206 43.7559 222.03 42.9589 221.983 42.1858L221.957 41.7676C221.906 40.9312 221.982 40.087 222.184 39.2351C222.399 38.3824 222.758 37.5972 223.262 36.8796C223.765 36.162 224.441 35.5673 225.29 35.0957C226.139 34.6241 227.171 34.3511 228.388 34.2768C229.63 34.2009 230.708 34.3514 231.621 34.7281C232.535 35.1048 233.275 35.6638 233.841 36.4051C234.408 37.1464 234.781 38.0395 234.959 39.0844L233.058 39.2006C232.909 38.421 232.616 37.7902 232.179 37.308C231.742 36.8132 231.205 36.458 230.569 36.2425C229.945 36.0262 229.253 35.9412 228.492 35.9877C227.669 36.038 226.955 36.2279 226.352 36.5573C225.748 36.874 225.253 37.305 224.866 37.8501C224.492 38.3818 224.217 38.9901 224.043 39.6749C223.881 40.359 223.824 41.0939 223.872 41.8796C223.918 42.6273 224.063 43.3308 224.307 43.9901C224.563 44.6486 224.916 45.2249 225.366 45.719C225.829 46.2122 226.386 46.5916 227.038 46.857C227.69 47.1098 228.44 47.2103 229.289 47.1584C230.481 47.0857 231.464 46.7267 232.238 46.0815C233.013 45.4363 233.455 44.5444 233.563 43.4056L235.464 43.2895C235.395 44.2477 235.125 45.1356 234.654 45.9531C234.195 46.7697 233.523 47.4404 232.64 47.9651C231.768 48.4889 230.686 48.7903 229.394 48.8693Z" fill="white"></path><path d="M192.806 54.4935L189.823 40.9143L192.8 40.2606L202.324 50.6871L202.919 50.5563L202.621 50.9729L199.924 38.6957L201.673 38.3117L204.655 51.8909L201.642 52.5528L192.117 42.1263L191.522 42.2571L191.821 41.8405L194.517 54.1176L192.806 54.4935Z" fill="white"></path><path d="M176.632 59.7892L172.016 46.6752L173.776 46.0554L178.393 59.1694L176.632 59.7892Z" fill="white"></path><path d="M136.921 79.3325L134.238 64.8003L136.969 63.2066L148.435 72.612L146.774 73.5817L136.35 64.9793L137.37 64.9132L135.429 66.0461L136.037 65.1617L138.533 78.3916L136.921 79.3325ZM137.41 74.2395L137.108 72.4752L142.29 69.451L143.677 70.5816L137.41 74.2395Z" fill="white"></path><path d="M124.381 88.4313L116.031 77.3153L117.523 76.1943L125.874 87.3103L124.381 88.4313Z" fill="white"></path><path d="M108.115 102.377L99.5292 93.1444L100.896 91.8734L109.482 101.106L108.115 102.377ZM96.6923 96.3025L95.5511 95.0752L103.11 88.0459L104.252 89.2732L96.6923 96.3025Z" fill="white"></path><path d="M85.7905 127.516L74.9822 118.771L76.8989 116.402L90.8486 118.6L91.2319 118.126L91.2589 118.637L81.487 110.731L82.613 109.339L93.4213 118.084L91.4807 120.483L77.531 118.285L77.1477 118.759L77.1207 118.247L86.8926 126.153L85.7905 127.516Z" fill="white"></path><path d="M69.8276 153.071L60.3383 141.742L61.9304 139.011L76.5409 141.553L75.5723 143.215L62.2641 140.859L63.1194 140.299L61.9877 142.241L62.0819 141.171L70.7674 151.458L69.8276 153.071ZM67.7463 148.397L66.6148 147.01L69.6358 141.827L71.4002 142.128L67.7463 148.397Z" fill="white"></path><path d="M59.5714 176.572L46.6177 171.317L47.3193 169.587L60.2731 174.842L59.5714 176.572ZM62.8004 168.612L55.3321 170.556L56.1554 168.527L63.6523 166.512L62.8004 168.612ZM55.349 173.605L53.8137 172.982L55.2169 169.523C55.4365 168.982 55.5132 168.472 55.4472 167.993C55.3812 167.514 55.197 167.09 54.8946 166.721C54.5805 166.346 54.1705 166.057 53.6646 165.852C53.1587 165.646 52.6686 165.571 52.1944 165.625C51.7085 165.675 51.275 165.848 50.894 166.146C50.5011 166.439 50.195 166.856 49.9754 167.397L48.5721 170.856L47.0544 170.24L48.3288 167.099C48.7106 166.157 49.1859 165.391 49.7547 164.8C50.3234 164.208 50.9807 163.838 51.7265 163.688C52.4722 163.539 53.3099 163.652 54.2393 164.029L54.5217 164.144C55.4512 164.521 56.1289 165.029 56.5549 165.668C56.9857 166.295 57.1991 167.018 57.195 167.839C57.1958 168.647 57.0053 169.522 56.6234 170.464L55.349 173.605Z" fill="white"></path><path d="M51.3844 205.475L39.0956 197.267L39.8565 194.198L54.593 192.535L54.13 194.402L40.6958 195.878L41.3595 195.101L40.8186 197.282L40.6087 196.229L51.8336 203.663L51.3844 205.475ZM48.0742 201.573L46.5988 200.56L48.0426 194.737L49.8206 194.53L48.0742 201.573Z" fill="white"></path><path d="M48.7812 228.19C48.6824 229.265 48.4158 230.222 47.9815 231.062C47.5472 231.902 46.9786 232.608 46.2756 233.181C45.5738 233.741 44.771 234.152 43.8672 234.413C42.9507 234.673 41.9741 234.755 40.9374 234.659L40.5201 234.621C39.6351 234.54 38.7956 234.309 38.0017 233.93C37.1964 233.537 36.4917 233.02 35.8878 232.378C35.2723 231.722 34.814 230.953 34.5126 230.071C34.1986 229.188 34.0905 228.215 34.1882 227.153C34.2941 226.003 34.6096 224.999 35.1347 224.142C35.6472 223.284 36.3203 222.619 37.1543 222.147C37.9755 221.675 38.9023 221.441 39.9345 221.447L39.76 223.344C38.9806 223.361 38.3189 223.555 37.7748 223.926C37.218 224.295 36.7847 224.778 36.4748 225.375C36.1534 225.957 35.9602 226.602 35.895 227.31C35.8287 228.031 35.9004 228.707 36.1101 229.338C36.3071 229.968 36.6255 230.527 37.0652 231.014C37.5061 231.488 38.0505 231.876 38.6985 232.178C39.3465 232.479 40.0878 232.669 40.9222 232.746C41.8705 232.833 42.7166 232.783 43.4605 232.597C44.193 232.396 44.8209 232.084 45.3444 231.661C45.8553 231.236 46.2599 230.718 46.5583 230.108C46.8578 229.486 47.0425 228.795 47.1123 228.036C47.2112 226.962 47.0829 226 46.7275 225.151C46.3606 224.289 45.8487 223.617 45.1917 223.136L47.3857 224.026L43.2703 223.647L43.4309 221.903L46.7308 222.206C47.4829 222.9 48.0418 223.755 48.4074 224.77C48.773 225.786 48.8976 226.926 48.7812 228.19ZM43.236 228.177L41.6809 228.034L42.3632 220.619L43.9183 220.762L43.236 228.177Z" fill="white"></path><defs><linearGradient id="paint0_linear_1109_552" x1="32.0803" y1="106.934" x2="443.014" y2="406.35" gradientUnits="userSpaceOnUse"><stop stop-color="white"></stop><stop offset="1" stop-color="#999999" stop-opacity="0"></stop></linearGradient><linearGradient id="paint1_linear_1109_552" x1="115.599" y1="152.291" x2="364.785" y2="341.855" gradientUnits="userSpaceOnUse"><stop stop-color="white"></stop><stop offset="1" stop-color="#999999" stop-opacity="0"></stop></linearGradient></defs></svg>